<?xml version="1.0" encoding="UTF-8"?>
<svg id="_圖層_2" data-name="圖層 2" xmlns="http://www.w3.org/2000/svg" viewBox="0 0 641.26 82.42">
  <defs>
    <style>
      .cls-1 {
        fill: #004097;
      }
    </style>
  </defs>
  <g id="_圖層_1-2" data-name=" 圖層 1">
    <g>
      <polygon class="cls-1" points="261.76 1.79 276.76 48.29 276.76 1.79 291.76 1.79 291.76 80.54 274.89 80.54 258.01 31.79 258.01 80.54 243.76 80.54 243.76 1.79 261.76 1.79"/>
      <path class="cls-1" d="M576.39,1.79c18.08,2.42,21.54,29.57,5.63,37.12,14.62,6.26,15.71,32.01,1.52,39.03-1.14.57-6.34,2.6-7.15,2.6h-31.12V1.79c9.71.94,21.71-1.26,31.12,0ZM561.01,33.29c8.31.38,14.52.84,14.3-9.39-.22-10.34-6-8.6-14.3-8.61v18ZM561.01,66.29c8.37.16,15.27,1.23,15.05-9.39-.22-10.68-6.43-9.64-15.05-9.36v18.75Z"/>
      <path class="cls-1" d="M125.26,80.54h-19.5l-9.06-28.82c-1.08-1.79-3.35-1.12-5.19-1.18v30h-16.5V1.79h26.62c2.63,0,9.28,2.55,11.58,4.17,9.85,6.95,10.74,26.35,4.42,35.83-1.09,1.63-5.88,5.38-5.75,6.73l13.38,32.02ZM91.51,37.04c8.51.65,12.26-.2,12.78-9.34.57-10.19-2.69-12.77-12.78-11.66v21Z"/>
      <path class="cls-1" d="M203.85.5c25.63-2.97,30.05,19.54,30.2,39.88.15,19.59-3.2,43.25-28.15,41.65-23.79-1.52-25.28-29.02-24.38-47.6.75-15.29,4.45-31.85,22.33-33.92h0ZM206.82,14.7c-4.49.44-6.07,5.15-6.96,8.81-1.89,7.81-2.19,34.16,2,40.8,2.11,3.34,7.35,4.21,10.38,1.58,4.7-4.08,4.91-24.49,4.55-30.76-.34-5.93-1.35-21.28-9.98-20.44h.01Z"/>
      <path class="cls-1" d="M504.01,1.79v58.12c0,6.55,8.84,10.22,12.74,4.49.36-.53,1.51-2.64,1.51-2.99V1.79h16.5v61.12c0,1.8-2.49,8.12-3.6,9.9-7.17,11.38-29.5,12.43-38.03,2.48-2.95-3.44-5.62-10.92-5.62-15.38V1.79h16.5,0Z"/>
      <polygon class="cls-1" points="172.51 1.79 172.51 16.79 150.01 16.79 150.01 33.29 170.26 33.29 170.26 47.54 150.01 47.54 150.01 65.54 173.26 65.54 173.26 80.54 133.51 80.54 133.51 1.79 172.51 1.79"/>
      <path class="cls-1" d="M640.51,1.79v15h-22.5v14.62c0,.23-1.03,1.07-.75,1.88h21.75c.2.55-.75.9-.75,1.12v12c0,.23.95.58.75,1.12h-21.75c-.2.55.75.9.75,1.12v15.75c0,.23-.95.58-.75,1.12h24v15h-39.75V1.77h39v.02Z"/>
      <path class="cls-1" d="M378.01,26.54h-16.5c-.09-15.36-12.77-15.69-14.24.39-.66,7.26-.82,26.97.93,33.54,3.19,11.99,16.08,6.27,14.81-4.68h15.75c1.83,20.56-19.8,33.62-37.27,22.65-14.21-8.93-12.98-44.36-9.63-58.67,7.07-30.23,49.24-24.07,46.15,6.78h0Z"/>
      <path class="cls-1" d="M479.26,26.54h-16.5c2.16-6.93-6.45-16.49-11.48-8.79-3.54,5.41-3.36,29.02-2.79,36.19.32,4.06,1.69,12.5,6.47,13.08,7.05.86,8.97-5.44,9.3-11.23h15.75c-.48,13.42-6.82,25.14-21.35,26.27-22.79,1.78-26.7-17.25-27.43-35.62-.79-19.85,1.3-48.49,28.07-46.06,14.35,1.3,20.61,12.69,19.96,26.15h0Z"/>
      <path class="cls-1" d="M424.51,1.79v15h-21.75v16.5h20.25v14.25h-20.25v18h22.5v15h-39c-.2-.55.75-.9.75-1.12V1.8h37.5Z"/>
      <path class="cls-1" d="M38.26,1.79v15H15.76c-.2.55.75.9.75,1.12v13.5c0,.23-1.03,1.07-.75,1.88h20.25v13.88c0,.19.89.6.43,1.13-.85,1.24-12.63.81-15.09.78-1.45-.02-4.31-1.47-5.25-.05l.4,31.51H0V1.79h38.26Z"/>
      <path class="cls-1" d="M320.26,1.79v78.75h-16.5V3.66c0-.23-1.03-1.07-.75-1.88h17.25Z"/>
      <rect class="cls-1" x="47.26" y="1.79" width="16.5" height="78.75"/>
    </g>
  </g>
</svg>