<?xml version="1.0" encoding="UTF-8"?>
<svg id="_圖層_2" data-name="圖層 2" xmlns="http://www.w3.org/2000/svg" viewBox="0 0 444.89 547.16">
  <defs>
    <style>
      .cls-1 {
        fill: #004097;
      }
    </style>
  </defs>
  <g id="_圖層_1-2" data-name=" 圖層 1">
    <path class="cls-1" d="M57.91,234.38c.14-.66,1.62-2.42,2.22-3.03l158.77-98.48,5.09-.85,64.88,40.14.05,1.47-31.14,19.19-35.06-20.97-102.56,63.26,21.8,13.53,69.32-42.35,2.12.81c7.7,6.44,19.65,10.89,27,17.26.69.59,2.29,1.33,2,2.49l-67.51,42.76,41.63,26.38,130.56-86,2.76.16,30.17,20.09.37,48.34c-.41,2.17-3.93,4.11-5.74,5.51-8.99,6.92-20.78,15.32-30.3,21.45-1.17.75-2.43,1.37-3.69,1.94v-37.5l-94.5,64.12v123.75l1.49.76,92.31-65.21.85-30.28c9.78-7.12,22.77-13.99,31.7-21.92,3.38-3,6.54-8.13,8.95-12.05,23.96-38.82,26.22-85.72,17.7-129.69,16.63,17.54,26.99,40.67,31.14,64.48,4.28,24.58,4.05,52.32-4.33,75.95-3.57,10.06-9.17,19.42-11.8,29.81l30.73-27c-5.84,35.43-23.06,69.06-51.07,91.8-13.58,11.03-29.75,21.51-44.24,31.51-40.04,27.64-81.2,53.76-121.59,80.9-1.67.11-3.1.58-4.75-.13-7.53-3.23-16.41-13.32-24.35-16.96l-.76-1.49-.12-194.88-98.88-65v189c-3.55-1.6-7.29-4.14-10.44-6.44-26-19.04-69.93-71.1-81.08-101.17-14.52-39.14-7.03-82.08,12.03-118.14,1.62.57.02,4.09-.04,5.59-1.39,36.54,6.5,77.06,37.92,99.4,2.29.2.36-.81.36-1.12v-101.25l.03.06Z"/>
    <path class="cls-1" d="M254.41,121.51l-7.88,2.23c-17.13,1.07-30.02-6.16-36.18-22.29-4.81-12.57-2.88-28.08-11.42-39.2-1.41,30.41-14.56,52.23-38.77,69.61-24.3,17.45-51.68,31.99-75.98,49.64,2.99-25.59,16.54-47.75,35.23-64.89,13.23-12.13,29.47-20.73,41.24-34.51,20.86-24.4,20.29-56.26,2.27-82.1,33.05,7.62,58.77,31.2,65.01,65.11,1.24,6.75,1.36,13.68,2.84,20.41,3.04,13.84,10.62,29.42,23.65,35.98h-.01Z"/>
    <path class="cls-1" d="M288.16,19.51c-7.38,17.34-7.3,40.3.61,57.51,10.93,23.77,33.05,33.83,49.66,52.34,19.64,21.89,31.56,50.36,32.97,79.89-10.99-7.07-24.38-13.76-34.09-22.52-3.93-3.54-6.26-8.11-9.76-11.99-24.7-27.39-59.46-34.44-69.76-74.99-6.96-27.4-1.42-54.62,20.28-73.48.99-.86,9.49-7.37,10.1-6.77h0Z"/>
    <path class="cls-1" d="M172.66,510.75c-1.39,1.54-30.98-21.43-34.46-22.92l-1.73-2.02-.56-161.81,3.26.86,33.49,23.51v162.38Z"/>
    <path class="cls-1" d="M36.17,213c1.92-31.01,16.88-59.63,39.73-80.25-4.62,18.99-8.16,38.3-7.61,58l-32.12,22.25h0Z"/>
  </g>
</svg>